<svg xmlns="http://www.w3.org/2000/svg" version="1.1" xmlns:xlink="http://www.w3.org/1999/xlink" viewBox="0 0 200 200"><rect width="200" height="200" fill="url('#gradient')"></rect><defs><linearGradient id="gradient" gradientTransform="rotate(44 0.5 0.5)"><stop offset="0%" stop-color="#472027"></stop><stop offset="100%" stop-color="#192025"></stop></linearGradient></defs><g><g fill="#f3bd7d" transform="matrix(1.2962936915394894,0,0,1.2962936915394894,8.608367213544579,109.21454154275558)" stroke="#c06a3e" stroke-width="0.2"><path d="M1.07-14.22L5.58-14.22L8.75-4.33L11.91-14.22L16.43-14.22L16.43 0L12.99 0L12.99-3.32L13.32-10.12L9.88 0L7.62 0L4.17-10.13L4.50-3.32L4.50 0L1.07 0L1.07-14.22ZM30.64-7.47L30.64-6.82Q30.64-4.74 29.87-3.13Q29.10-1.53 27.68-0.67Q26.26 0.20 24.44 0.20Q22.63 0.20 21.22-0.64Q19.81-1.47 19.03-3.03Q18.24-4.58 18.20-6.59L18.20-6.59L18.20-7.39Q18.20-9.48 18.97-11.08Q19.74-12.68 21.17-13.54Q22.60-14.41 24.42-14.41L24.42-14.41Q26.23-14.41 27.65-13.55Q29.06-12.70 29.85-11.11Q30.63-9.52 30.64-7.47L30.64-7.47ZM27.16-6.76L27.16-7.41Q27.16-9.53 26.45-10.63Q25.74-11.73 24.42-11.73L24.42-11.73Q21.85-11.73 21.70-7.86L21.70-7.86L21.69-6.82Q21.69-4.73 22.38-3.60Q23.08-2.48 24.44-2.48L24.44-2.48Q25.74-2.48 26.45-3.58Q27.15-4.69 27.16-6.76L27.16-6.76ZM32.41-14.22L36.91-14.22L40.09-4.33L43.25-14.22L47.76-14.22L47.76 0L44.33 0L44.33-3.32L44.66-10.12L41.22 0L38.96 0L35.51-10.13L35.84-3.32L35.84 0L32.41 0L32.41-14.22ZM61.98-7.47L61.98-6.82Q61.98-4.74 61.21-3.13Q60.44-1.53 59.02-0.67Q57.60 0.20 55.78 0.20Q53.96 0.20 52.56-0.64Q51.15-1.47 50.37-3.03Q49.58-4.58 49.54-6.59L49.54-6.59L49.54-7.39Q49.54-9.48 50.31-11.08Q51.07-12.68 52.50-13.54Q53.94-14.41 55.76-14.41L55.76-14.41Q57.57-14.41 58.98-13.55Q60.40-12.70 61.19-11.11Q61.97-9.52 61.98-7.47L61.98-7.47ZM58.50-6.76L58.50-7.41Q58.50-9.53 57.79-10.63Q57.08-11.73 55.76-11.73L55.76-11.73Q53.18-11.73 53.04-7.86L53.04-7.86L53.03-6.82Q53.03-4.73 53.72-3.60Q54.41-2.48 55.78-2.48L55.78-2.48Q57.08-2.48 57.78-3.58Q58.49-4.69 58.50-6.76L58.50-6.76ZM74.10-12.46L67.37-2.64L74.17-2.64L74.17 0L63.10 0L63.10-1.81L69.87-11.57L63.06-11.57L63.06-14.22L74.10-14.22L74.10-12.46ZM83.40-14.22L86.22-3.87L89.05-14.22L92.88-14.22L88.10 0L84.35 0L79.60-14.22L83.40-14.22ZM102.09 0L101.26-2.66L96.56-2.66L95.74 0L92.08 0L97.29-14.22L100.52-14.22L105.77 0L102.09 0ZM98.91-10.23L97.38-5.30L100.44-5.30L98.91-10.23ZM114.37-14.22L117.79-14.22L117.79-4.91Q117.79-3.33 117.12-2.17Q116.45-1.02 115.19-0.41Q113.93 0.20 112.21 0.20L112.21 0.20Q109.61 0.20 108.12-1.15Q106.62-2.50 106.59-4.84L106.59-4.84L106.59-14.22L110.04-14.22L110.04-4.78Q110.10-2.44 112.21-2.44L112.21-2.44Q113.27-2.44 113.82-3.03Q114.37-3.61 114.37-4.93L114.37-4.93L114.37-14.22ZM123.36-14.22L123.36-2.64L129.33-2.64L129.33 0L119.93 0L119.93-14.22L123.36-14.22ZM139.93-14.22L139.93-11.57L135.66-11.57L135.66 0L132.24 0L132.24-11.57L128.05-11.57L128.05-14.22L139.93-14.22Z"></path></g></g></svg>